<?xml version="1.0" encoding="utf-8"?>
<!-- Generator: Adobe Illustrator 15.1.0, SVG Export Plug-In . SVG Version: 6.00 Build 0)  -->
<!DOCTYPE svg PUBLIC "-//W3C//DTD SVG 1.1//EN" "http://www.w3.org/Graphics/SVG/1.1/DTD/svg11.dtd">
<svg version="1.1" id="Layer_1" zoomAndPan="disable"
	 xmlns="http://www.w3.org/2000/svg" xmlns:xlink="http://www.w3.org/1999/xlink" x="0px" y="0px" width="500px" height="500px"
	 viewBox="0 0 500 500" enable-background="new 0 0 500 500" xml:space="preserve">
<g>
	<line fill="none" stroke="#000000" stroke-width="0.15" x1="-511.751" y1="-52.418" x2="-11.751" y2="447.582"/>
	<line fill="none" stroke="#000000" stroke-width="0.15" x1="-496.084" y1="-96.751" x2="3.916" y2="403.249"/>
	<line fill="none" stroke="#000000" stroke-width="0.15" x1="-476.584" y1="-137.252" x2="23.416" y2="362.748"/>
	<line fill="none" stroke="#000000" stroke-width="0.15" x1="-421.751" y1="-142.418" x2="78.249" y2="357.582"/>
	<line fill="none" stroke="#000000" stroke-width="0.15" x1="-451.751" y1="-232.418" x2="48.249" y2="267.581"/>
	<line fill="none" stroke="#000000" stroke-width="0.15" x1="-361.751" y1="-202.418" x2="138.249" y2="297.582"/>
	<line fill="none" stroke="#000000" stroke-width="0.15" x1="-284.418" y1="-185.085" x2="215.582" y2="314.915"/>
	<line fill="none" stroke="#000000" stroke-width="0.15" x1="-301.751" y1="-262.418" x2="198.249" y2="237.582"/>
	<line fill="none" stroke="#000000" stroke-width="0.15" x1="-273.418" y1="-294.085" x2="226.582" y2="205.915"/>
	<line fill="none" stroke="#000000" stroke-width="0.15" x1="-218.751" y1="-299.418" x2="281.249" y2="200.582"/>
	<line fill="none" stroke="#000000" stroke-width="0.15" x1="-241.251" y1="-381.918" x2="258.749" y2="118.082"/>
	<line fill="none" stroke="#000000" stroke-width="0.15" x1="-181.751" y1="-382.418" x2="318.249" y2="117.582"/>
	<line fill="none" stroke="#000000" stroke-width="0.15" x1="-127.085" y1="-387.752" x2="372.915" y2="112.248"/>
	<line fill="none" stroke="#000000" stroke-width="0.15" x1="-132.251" y1="-452.918" x2="367.749" y2="47.082"/>
</g>
<g display="none">
	<line display="inline" fill="none" stroke="#ED1F24" x1="0" y1="0" x2="500" y2="500"/>
	<line display="inline" fill="none" stroke="#ED1F24" x1="60" y1="0" x2="500" y2="440"/>
	<line display="inline" fill="none" stroke="#ED1F24" x1="120" y1="0" x2="500" y2="380"/>
	<line display="inline" fill="none" stroke="#ED1F24" x1="180" y1="0" x2="500" y2="320"/>
	<line display="inline" fill="none" stroke="#ED1F24" x1="240" y1="0" x2="500" y2="260"/>
	<line display="inline" fill="none" stroke="#ED1F24" x1="300" y1="0" x2="500" y2="200"/>
	<line display="inline" fill="none" stroke="#ED1F24" x1="360" y1="0" x2="500" y2="140"/>
	<line display="inline" fill="none" stroke="#ED1F24" x1="420" y1="0" x2="500" y2="80"/>
</g>
</svg>
