<?xml version="1.0" encoding="utf-8"?>
<!-- Generator: Adobe Illustrator 15.1.0, SVG Export Plug-In . SVG Version: 6.00 Build 0)  -->
<!DOCTYPE svg PUBLIC "-//W3C//DTD SVG 1.1 Tiny//EN" "http://www.w3.org/Graphics/SVG/1.1/DTD/svg11-tiny.dtd">
<svg version="1.1" baseProfile="tiny" id="Layer_1" xmlns="http://www.w3.org/2000/svg" xmlns:xlink="http://www.w3.org/1999/xlink"
	 x="0px" y="0px" width="142px" height="62px" viewBox="0 0 142 62" xml:space="preserve">
<rect fill="#D01413" width="142" height="62"/>
<g>
	<path fill="#FFFFFF" d="M26.798,39.547c0.909,0,1.755-0.22,2.153-0.658c0.398-0.439,0.789-1.166,0.789-2.181v-1.511l-0.451,0.396
		c-0.714,0.984-1.835,1.477-3.172,1.477c-1.593,0-2.927-0.573-3.908-1.72c-0.979-1.146-1.495-2.657-1.495-4.535
		c0-1.923,0.465-3.471,1.419-4.643s2.203-1.758,3.757-1.758c1.375,0,2.568,0.5,3.328,1.499c0.143,0.188,0.521,0.394,0.521,0.619
		v-1.407h3v11.223c0,1.938-0.588,3.367-1.546,4.287s-2.505,1.38-4.533,1.38c-1.668,0-3.021-0.433-4.005-1.083
		c-0.984-0.649-1.538-1.807-1.605-2.807h3.516c0.03,1,0.223,0.835,0.58,1.027C25.504,39.344,26.054,39.547,26.798,39.547z
		 M26.697,27.209c-0.842,0-1.499,0.32-1.972,0.963c-0.473,0.643-0.71,1.534-0.71,2.677c0,1.118,0.237,1.992,0.71,2.619
		c0.474,0.628,1.127,0.941,1.961,0.941c0.849,0,1.512-0.319,1.989-0.959c0.477-0.638,0.715-1.521,0.715-2.646
		c0-1.128-0.238-2.008-0.715-2.644C28.197,27.526,27.538,27.209,26.697,27.209z"/>
	<path fill="#FFFFFF" d="M38.74,27.125v10h-1.826H35.74v-10h-2v-2h2v-1.41c0-1.179,0.09-2.058,0.717-2.637
		c0.627-0.578,1.532-0.867,2.809-0.867c0.571-0.008,0.474,0.019,1.474,0.079v2.835h-1.155c-0.428,0-0.604-0.041-0.743,0.132
		s-0.102,0.398-0.102,0.931v0.937h2v2H38.74z"/>
	<path fill="#FFFFFF" d="M41.74,25.125h1.421h1.579v1.43l0.196-0.304c0.872-1.225,2.012-1.837,3.439-1.837
		c1.555,0,2.799,0.574,3.742,1.724s1.412,2.663,1.412,4.541c0,1.991-0.473,3.595-1.416,4.812c-0.943,1.218-2.192,1.826-3.747,1.826
		c-1.42,0-2.627-0.571-3.498-1.713l-0.129-0.09v6.611h-1.489H41.74V25.125z M47.443,34.656c0.864,0,1.54-0.324,2.028-0.975
		c0.488-0.649,0.732-1.553,0.732-2.71c0-1.179-0.243-2.101-0.727-2.767c-0.484-0.664-1.159-0.996-2.022-0.996
		c-0.864,0-1.538,0.342-2.023,1.025c-0.484,0.684-0.727,1.633-0.727,2.851c0,1.119,0.242,1.994,0.727,2.625
		C45.917,34.341,46.587,34.656,47.443,34.656z"/>
	<path fill="#FFFFFF" d="M64.434,25.125c-0.061-1-0.406-1.274-1.036-1.736c-0.631-0.462-1.453-0.624-2.466-0.624
		c-0.878,0-1.566,0.229-2.062,0.616c-0.495,0.387-0.743,0.943-0.743,1.635c0,0.495,0.259,0.888,0.778,1.158
		c0.511,0.271,1.596,0.593,3.256,0.961c2.411,0.541,4.022,1.167,4.833,1.874c0.813,0.698,1.219,1.822,1.219,3.37
		c0,1.555-0.612,2.789-1.837,3.701c-1.224,0.913-2.88,1.371-4.968,1.371c-2.096,0-3.733-0.354-4.912-1.323
		c-1.179-0.969-1.81-2.004-1.893-4.004h3.335c0.037,1,0.356,1.424,0.957,1.896c0.601,0.473,1.438,0.645,2.513,0.645
		c1.103,0,1.965-0.211,2.584-0.567c0.62-0.357,0.929-0.867,0.929-1.499c0-0.623-0.223-1.09-0.669-1.382
		c-0.436-0.293-1.367-0.602-2.793-0.917c-2.627-0.586-4.384-1.223-5.27-1.906c-0.879-0.676-1.319-1.732-1.319-3.167
		c0-1.607,0.582-2.883,1.746-3.827c1.164-0.942,2.737-1.414,4.719-1.414c1.855,0,3.364,0.348,4.528,1.324s1.81,2.815,1.938,3.815
		H64.434z"/>
	<path fill="#FFFFFF" d="M75.74,37.069c-1,0.044-1.209,0.066-1.998,0.066c-1.143,0-1.857-0.204-2.357-0.614
		c-0.5-0.409-0.645-1.079-0.645-2.011v-7.386h-2v-2h2v-4h3v4h2v2h-2v6.845c0,0.286,0.096,0.701,0.264,0.791
		c0.17,0.091,0.53,0.364,1.063,0.364h0.673V37.069z"/>
	<path fill="#FFFFFF" d="M80.74,32.414c0,0.752-0.059,1.307,0.265,1.668c0.323,0.36,0.71,0.541,1.378,0.541
		c0.84,0,1.359-0.255,1.809-0.767c0.451-0.511,0.549-1.246,0.549-2.208v-6.523h1.758h1.242v12h-1.152H84.74v-1.961
		c0,0.225-0.096,0.436-0.254,0.631c-0.796,1.015-1.873,1.521-3.383,1.521c-1.292,0-2.425-0.382-3.151-1.145
		c-0.725-0.763-1.212-1.819-1.212-3.171v-7.876h1.938h2.062V32.414z"/>
	<path fill="#FFFFFF" d="M94.977,37.316c-1.562,0-2.822-0.608-3.78-1.826c-0.957-1.217-1.437-2.82-1.437-4.812
		c0-1.878,0.477-3.392,1.431-4.541s2.209-1.724,3.764-1.724c1.39,0,2.656,0.586,3.504,1.758l0.282,0.18v-6.227h1.318h1.682v17
		h-1.625H98.74v-1.69l-0.152,0.079C97.694,36.715,96.427,37.316,94.977,37.316z M95.845,27.209c-0.863,0-1.54,0.332-2.028,0.996
		c-0.488,0.666-0.732,1.588-0.732,2.767c0,1.157,0.242,2.061,0.727,2.71c0.485,0.65,1.159,0.975,2.023,0.975
		c0.87,0,1.551-0.342,2.039-1.025s0.732-1.634,0.732-2.851c0-1.119-0.244-1.994-0.732-2.625S96.709,27.209,95.845,27.209z"/>
	<path fill="#FFFFFF" d="M103.74,20.125h3v3h-3V20.125z M103.74,25.125h1.808h1.192v12h-1.182h-1.818V25.125z"/>
	<path fill="#FFFFFF" d="M110.464,35.593c-1.13-1.15-1.696-2.701-1.696-4.654c0-1.998,0.566-3.585,1.696-4.761
		c1.131-1.176,2.653-1.764,4.569-1.764c1.931,0,3.46,0.588,4.587,1.764c1.126,1.176,1.689,2.763,1.689,4.761
		c0,1.953-0.563,3.504-1.689,4.654c-1.127,1.148-2.656,1.724-4.587,1.724C113.117,37.316,111.595,36.741,110.464,35.593z
		 M117.23,33.665c0.503-0.631,0.755-1.552,0.755-2.761c0-1.239-0.252-2.18-0.755-2.822s-1.235-0.964-2.197-0.964
		s-1.691,0.321-2.191,0.964s-0.75,1.583-0.75,2.822c0,1.209,0.25,2.13,0.75,2.761c0.5,0.632,1.229,0.946,2.191,0.946
		S116.728,34.297,117.23,33.665z"/>
</g>
</svg>
