<?xml version="1.0" encoding="utf-8"?>
<!-- Generator: Adobe Illustrator 15.1.0, SVG Export Plug-In . SVG Version: 6.00 Build 0)  -->
<!DOCTYPE svg PUBLIC "-//W3C//DTD SVG 1.1//EN" "http://www.w3.org/Graphics/SVG/1.1/DTD/svg11.dtd">
<svg version="1.1" id="Layer_1" zoomAndPan="disable"
	 xmlns="http://www.w3.org/2000/svg" xmlns:xlink="http://www.w3.org/1999/xlink" x="0px" y="0px" width="500px" height="500px"
	 viewBox="0 0 500 500" enable-background="new 0 0 500 500" xml:space="preserve">
<g>
	<line fill="none" stroke="#FFFFFF" stroke-width="0.15" x1="555" y1="-445" x2="55" y2="55"/>
	<line fill="none" stroke="#FFFFFF" stroke-width="0.15" x1="599.333" y1="-429.333" x2="99.333" y2="70.667"/>
	<line fill="none" stroke="#FFFFFF" stroke-width="0.15" x1="639.834" y1="-409.833" x2="139.833" y2="90.167"/>
	<line fill="none" stroke="#FFFFFF" stroke-width="0.15" x1="645" y1="-355" x2="145" y2="145"/>
	<line fill="none" stroke="#FFFFFF" stroke-width="0.15" x1="735" y1="-385" x2="235" y2="115"/>
	<line fill="none" stroke="#FFFFFF" stroke-width="0.15" x1="705" y1="-295" x2="205" y2="205"/>
	<line fill="none" stroke="#FFFFFF" stroke-width="0.15" x1="687.667" y1="-217.667" x2="187.667" y2="282.333"/>
	<line fill="none" stroke="#FFFFFF" stroke-width="0.15" x1="765" y1="-235" x2="265" y2="265"/>
	<line fill="none" stroke="#FFFFFF" stroke-width="0.15" x1="796.667" y1="-206.667" x2="296.667" y2="293.333"/>
	<line fill="none" stroke="#FFFFFF" stroke-width="0.15" x1="802" y1="-152" x2="302" y2="348"/>
	<line fill="none" stroke="#FFFFFF" stroke-width="0.15" x1="884.5" y1="-174.5" x2="384.5" y2="325.5"/>
	<line fill="none" stroke="#FFFFFF" stroke-width="0.15" x1="885" y1="-115" x2="385" y2="385"/>
	<line fill="none" stroke="#FFFFFF" stroke-width="0.15" x1="890.334" y1="-60.334" x2="390.334" y2="439.666"/>
	<line fill="none" stroke="#FFFFFF" stroke-width="0.15" x1="955.5" y1="-65.5" x2="455.5" y2="434.5"/>
</g>
<g display="none">
	<line display="inline" fill="none" stroke="#ED1F24" x1="0" y1="0" x2="500" y2="500"/>
	<line display="inline" fill="none" stroke="#ED1F24" x1="60" y1="0" x2="500" y2="440"/>
	<line display="inline" fill="none" stroke="#ED1F24" x1="120" y1="0" x2="500" y2="380"/>
	<line display="inline" fill="none" stroke="#ED1F24" x1="180" y1="0" x2="500" y2="320"/>
	<line display="inline" fill="none" stroke="#ED1F24" x1="240" y1="0" x2="500" y2="260"/>
	<line display="inline" fill="none" stroke="#ED1F24" x1="300" y1="0" x2="500" y2="200"/>
	<line display="inline" fill="none" stroke="#ED1F24" x1="360" y1="0" x2="500" y2="140"/>
	<line display="inline" fill="none" stroke="#ED1F24" x1="420" y1="0" x2="500" y2="80"/>
</g>
</svg>
